<svg width="71" height="71" viewBox="0 0 71 71" fill="none" xmlns="http://www.w3.org/2000/svg">
<g clip-path="url(#clip0)">
<path d="M11.7971 63.0862C11.5393 62.8281 11.1815 62.6799 10.8168 62.6799C10.4521 62.6799 10.0944 62.8281 9.83642 63.0862C9.57849 63.3443 9.43011 63.7019 9.43011 64.0666C9.43011 64.4313 9.57836 64.7891 9.83642 65.0469C10.0944 65.3048 10.4521 65.4533 10.8168 65.4533C11.1815 65.4533 11.5393 65.3049 11.7971 65.0469C12.055 64.7891 12.2036 64.4313 12.2036 64.0666C12.2036 63.7019 12.0552 63.3441 11.7971 63.0862Z" fill="#FFFBFB"/>
<path d="M65.1097 25.3683C64.8518 25.1102 64.4954 24.962 64.1293 24.962C63.7646 24.962 63.4068 25.1102 63.1489 25.3683C62.8911 25.6262 62.7426 25.984 62.7426 26.3487C62.7426 26.7134 62.891 27.0712 63.1489 27.329C63.4068 27.5869 63.7646 27.7354 64.1293 27.7354C64.4954 27.7354 64.8518 27.5871 65.1097 27.329C65.3689 27.0712 65.5173 26.7134 65.5173 26.3487C65.5173 25.984 65.3689 25.6262 65.1097 25.3683Z" fill="#FFFBFB"/>
<path d="M70.5931 0.40617C70.3329 0.14616 69.9801 0 69.6122 0L35.4998 0.00180273C34.734 0.00180273 34.1132 0.622775 34.1132 1.38852V5.35412L20.9686 8.87625C20.2288 9.07455 19.7898 9.83489 19.9881 10.5746L26.8006 35.9989L20.9072 41.8924C20.1571 40.7971 18.8977 40.0769 17.4731 40.0769H4.16106C1.86715 40.0769 0.0010376 41.9431 0.0010376 44.2369V66.8398C0.0010376 69.1338 1.86715 71 4.16106 71H17.4733C19.422 71 21.0614 69.6527 21.5107 67.8411L23.1595 69.2789C24.4324 70.3889 26.0632 71.0001 27.7521 71.0001H69.6125C70.3783 71.0001 70.9992 70.3792 70.9992 69.6134V1.38672C70.999 1.01896 70.8531 0.66618 70.5931 0.40617ZM18.8597 66.84C18.8597 67.6045 18.2376 68.2267 17.473 68.2267H4.16092C3.39628 68.2267 2.7742 67.6046 2.7742 66.84V44.237C2.7742 43.4724 3.39628 42.8503 4.16092 42.8503H9.43031V58.8246C9.43031 59.5904 10.0513 60.2113 10.817 60.2113C11.5828 60.2113 12.2037 59.5904 12.2037 58.8246V42.8503H17.4731C18.2378 42.8503 18.8599 43.4724 18.8599 44.237V66.84H18.8597ZM23.0258 11.1962L34.1132 8.22532V13.3638L33.1838 13.6129C32.8284 13.7081 32.5257 13.9404 32.3418 14.2589C32.1579 14.5775 32.108 14.9559 32.2033 15.3112C32.7362 17.2999 31.5518 19.3512 29.5631 19.8842C29.2074 19.9796 28.9041 20.2123 28.7204 20.5315C28.5367 20.8506 28.4872 21.2297 28.5833 21.5852L33.9885 41.6009H31.2054L29.7711 35.9897C29.7255 35.811 29.6456 35.6464 29.5387 35.5033L23.0258 11.1962ZM34.1132 19.7232V31.4244L31.584 22.0592C32.6405 21.5137 33.5051 20.6975 34.1132 19.7232ZM54.0354 68.2266H27.7518C26.7332 68.2266 25.7496 67.858 24.9819 67.1886L21.6332 64.268V45.0887L27.6873 39.0346L28.7853 43.3307C28.9423 43.9446 29.4952 44.3739 30.1288 44.3739L57.3922 44.3756C58.4627 44.3756 59.3336 45.2464 59.3336 46.317C59.3336 47.3875 58.4627 48.2584 57.3922 48.2584H43.4224C42.6566 48.2584 42.0357 48.8793 42.0357 49.6451C42.0357 50.4108 42.6566 51.0318 43.4224 51.0318H61.7326C62.8032 51.0318 63.674 51.9027 63.674 52.9732C63.674 54.0438 62.8032 54.9146 61.7326 54.9146H43.4224C42.6566 54.9146 42.0357 55.5356 42.0357 56.3013C42.0357 57.0671 42.6566 57.6881 43.4224 57.6881H58.7655C59.836 57.6881 60.7069 58.5589 60.7069 59.6295C60.7069 60.7 59.836 61.5709 58.7655 61.5709H43.4224C42.6566 61.5709 42.0357 62.1918 42.0357 62.9576C42.0357 63.7233 42.6566 64.3443 43.4224 64.3443H54.0354C55.1059 64.3443 55.9768 65.2152 55.9768 66.2857C55.9766 67.3557 55.1058 68.2266 54.0354 68.2266ZM68.2258 68.2266H68.2257H58.3302C58.5991 67.634 58.7501 66.9771 58.7501 66.2852C58.7501 65.5932 58.5991 64.9363 58.3302 64.3438H58.7655C61.3651 64.3438 63.4802 62.2287 63.4802 59.629C63.4802 58.8708 63.2992 58.1543 62.9797 57.5189C64.976 56.9706 66.4472 55.1408 66.4472 52.9729C66.4472 51.9212 66.1008 50.949 65.5166 50.1641V32.5889C65.5166 31.8231 64.8956 31.2021 64.1298 31.2021C63.3641 31.2021 62.7431 31.8231 62.7431 32.5889V48.3686C62.4173 48.2972 62.0793 48.2584 61.7323 48.2584H61.6869C61.9557 47.6658 62.1068 47.0089 62.1068 46.317C62.1068 43.7171 59.9917 41.6023 57.3921 41.6023H55.1629C57.5299 40.5872 59.1923 38.2345 59.1923 35.5C59.1923 31.8406 56.2153 28.8634 52.5559 28.8634C48.8966 28.8634 45.9195 31.8406 45.9195 35.5C45.9195 38.2345 47.582 40.5872 49.9488 41.6023H42.3686V15.2349C44.8459 14.6951 46.8006 12.7405 47.3403 10.2631H57.7713C58.311 12.7405 60.2658 14.6951 62.743 15.2349V19.5462C62.743 20.312 63.364 20.9329 64.1297 20.9329C64.8955 20.9329 65.5164 20.312 65.5164 19.5462V13.9968C65.5164 13.2311 64.8955 12.6101 64.1297 12.6101C62.0708 12.6101 60.3961 10.9351 60.3961 8.87639C60.3961 8.11064 59.7751 7.48967 59.0094 7.48967H46.1024C45.3366 7.48967 44.7156 8.11064 44.7156 8.87639C44.7156 10.9352 43.0408 12.6101 40.982 12.6101C40.2163 12.6101 39.5953 13.2311 39.5953 13.9968V41.6021H36.8868V2.77496L68.2258 2.77344V68.2266ZM52.5562 39.3631C50.426 39.3631 48.6932 37.6301 48.6932 35.5001C48.6932 33.3701 50.4262 31.637 52.5562 31.637C54.6862 31.637 56.4191 33.37 56.4191 35.5C56.4191 37.63 54.6863 39.3631 52.5562 39.3631Z" fill="#FFFBFB"/>
</g>
<defs>
<clipPath id="clip0">
<rect width="71" height="71" fill="white"/>
</clipPath>
</defs>
</svg>
