<svg width="71" height="71" viewBox="0 0 71 71" fill="none" xmlns="http://www.w3.org/2000/svg">
<path d="M67.6151 41.5868H66.5526V32.0164C66.5526 30.5013 65.7985 29.1598 64.6468 28.3446V27.0415C64.6468 25.1513 63.1091 23.6136 61.2188 23.6136H60.4255L63.4609 19.1594C64.4783 17.6665 64.0914 15.624 62.5985 14.6064L42.0014 0.570045C41.2782 0.0770663 40.4065 -0.104871 39.5462 0.0583456C38.6863 0.221285 37.9412 0.709271 37.4484 1.43258L19.6705 27.52H14.7234L15.9169 15.4375C15.9304 15.3013 16.0189 15.1833 16.1423 15.1368C17.68 14.557 19.0127 13.4743 19.8946 12.0881C19.9641 11.979 20.0951 11.9166 20.2308 11.9303L27.9901 12.6969C28.5465 12.7508 29.0414 12.3456 29.0963 11.7896C29.1512 11.2335 28.7451 10.7383 28.189 10.6834L20.4296 9.91681C19.5289 9.82861 18.67 10.2437 18.1874 11.0019C17.539 12.0212 16.5591 12.8171 15.4285 13.2434C14.5775 13.5643 13.9932 14.3287 13.9033 15.2385L12.6902 27.5198H11.4001L13.2877 8.41028C13.3557 7.72246 13.9696 7.21714 14.6582 7.28606L30.3384 8.83503C30.8945 8.88869 31.3897 8.48377 31.4446 7.9277C31.4995 7.37162 31.0933 6.87643 30.5373 6.82151L14.8571 5.27255C13.0593 5.09519 11.4517 6.41326 11.2741 8.21128L9.75257 23.6136H7.16148C5.27138 23.6136 3.73351 25.1513 3.73351 27.0415V27.9304C2.18718 28.6424 1.11053 30.2055 1.11053 32.0164V66.5034C1.11053 68.9829 3.12766 71 5.60725 71H62.056C64.5354 71 66.5526 68.9829 66.5526 66.5034V56.9331H67.6151C68.8692 56.9331 69.8894 55.9129 69.8894 54.6589V43.8612C69.8896 42.607 68.8692 41.5868 67.6151 41.5868ZM61.2188 25.6371C61.9935 25.6369 62.6234 26.2671 62.6234 27.0417V27.5571C62.4373 27.5335 62.2483 27.5201 62.056 27.5201H57.7634L59.0465 25.6371H61.2188ZM39.1204 2.57191C39.309 2.29526 39.5939 2.10861 39.9229 2.04621C40.0015 2.03137 40.0804 2.02388 40.1587 2.02388C40.4079 2.02388 40.6514 2.09849 40.8619 2.24187L61.459 16.2782C62.0301 16.6675 62.1782 17.4488 61.789 18.0198L55.315 27.5197H53.7613L56.9354 22.8621C57.4501 22.1068 57.4926 21.1455 57.0458 20.3533C56.452 19.3007 56.2113 18.0614 56.368 16.8634C56.4844 15.9722 56.0923 15.1022 55.3446 14.5927L44.6671 7.31629C43.9192 6.80667 42.966 6.75994 42.1792 7.1944C41.1218 7.77821 39.8803 8.00743 38.6835 7.83992C37.796 7.71539 36.8959 8.11615 36.3888 8.86013L23.6727 27.5198H22.119L39.1204 2.57191ZM39.5659 19.7521C35.1602 19.7521 31.5436 23.1874 31.2489 27.5198H26.121L38.0605 9.9996C38.0606 9.9996 38.0606 9.9996 38.0606 9.9996C38.1284 9.89989 38.2409 9.84054 38.3564 9.84054C38.3718 9.84054 38.3872 9.84165 38.4026 9.84373C40.0303 10.0714 41.7187 9.75997 43.157 8.9658C43.2701 8.90312 43.4154 8.91213 43.5275 8.9884L54.2051 16.2649C54.3169 16.3412 54.3783 16.4732 54.3616 16.6014C54.1485 18.2306 54.476 19.916 55.2835 21.3474C55.3483 21.4624 55.3404 21.6096 55.2636 21.7226L51.3131 27.5197H47.8833C47.5884 23.1874 43.9719 19.7521 39.5659 19.7521ZM45.8544 27.52H33.2776C33.5674 24.3043 36.2762 21.7756 39.5659 21.7756C42.8558 21.7755 45.5647 24.3043 45.8544 27.52ZM5.75687 27.0415C5.75687 26.2669 6.38686 25.6368 7.16148 25.6368H9.55274L9.36678 27.5198H5.75687V27.0415ZM3.1339 32.0164C3.1339 30.6527 4.24341 29.5432 5.60725 29.5432H62.056C63.4198 29.5432 64.5292 30.6527 64.5292 32.0164V34.8237H3.1339V32.0164ZM64.5292 66.5034C64.5292 67.8671 63.4198 68.9766 62.056 68.9766H5.60725C4.24341 68.9766 3.1339 67.8671 3.1339 66.5034V63.6961H8.58953C9.14837 63.6961 9.60114 63.2432 9.60114 62.6845C9.60114 62.1258 9.14823 61.6729 8.58953 61.6729H3.1339V36.847H64.5292V41.5868H54.9101H54.91C51.8791 41.5868 49.2538 43.3535 48.0078 45.9108C48.0037 45.9194 47.999 45.9277 47.9947 45.9363C47.9841 45.9581 47.975 45.9807 47.9647 46.0026C47.8163 46.3178 47.6874 46.6441 47.5824 46.9808C47.5821 46.9817 47.5818 46.9826 47.5816 46.9835C47.3576 47.7031 47.2368 48.4676 47.2368 49.26C47.2368 53.491 50.6789 56.9331 54.9098 56.9331H54.91H64.5291V61.6729H15.0674C14.5086 61.6729 14.0558 62.1258 14.0558 62.6845C14.0558 63.2432 14.5087 63.6961 15.0674 63.6961H64.5292V66.5034ZM67.8662 54.6587C67.8662 54.7971 67.7536 54.9097 67.6151 54.9097H54.9102C52.7684 54.9097 50.9011 53.7118 49.9433 51.9508C49.8997 51.8707 49.8581 51.7895 49.8183 51.7073C49.7389 51.5426 49.6672 51.3736 49.6038 51.2005C49.3817 50.5951 49.2605 49.9414 49.2605 49.26C49.2605 48.5785 49.3818 47.9248 49.6038 47.3194C49.6673 47.1465 49.739 46.9774 49.8183 46.8127C49.8581 46.7305 49.8997 46.6492 49.9433 46.5692C50.9011 44.8082 52.7684 43.6102 54.9102 43.6102H67.6151C67.7535 43.6102 67.8662 43.7228 67.8662 43.8612V54.6587Z" fill="white"/>
<path d="M55.1472 45.1553C52.8838 45.1553 51.0425 46.9968 51.0425 49.26C51.0425 51.5233 52.8838 53.3646 55.1472 53.3646C57.4106 53.3646 59.2519 51.5233 59.2519 49.26C59.2519 46.9968 57.4106 45.1553 55.1472 45.1553ZM55.1472 51.3412C53.9995 51.3412 53.0658 50.4075 53.0658 49.26C53.0658 48.1125 53.9995 47.1787 55.1472 47.1787C56.2948 47.1787 57.2285 48.1124 57.2285 49.26C57.2285 50.4077 56.2948 51.3412 55.1472 51.3412Z" fill="white"/>
</svg>
