<svg width="71" height="71" viewBox="0 0 71 71" fill="none" xmlns="http://www.w3.org/2000/svg">
<path d="M58.5893 37.5264C58.0186 37.5264 57.556 37.989 57.556 38.5597C57.556 39.2831 56.9675 39.8716 56.2441 39.8716C55.5208 39.8716 54.9321 39.2831 54.9321 38.5597C54.9321 37.9889 54.4695 37.5264 53.8988 37.5264C53.3282 37.5264 52.8656 37.989 52.8656 38.5597C52.8656 40.4226 54.3813 41.9381 56.2441 41.9381C58.1068 41.9381 59.6225 40.4224 59.6225 38.5597C59.6225 37.9887 59.1599 37.5264 58.5893 37.5264Z" fill="white"/>
<path d="M68.2881 37.6952L65.3799 36.7636C65.0074 36.6442 64.7139 36.3469 64.5947 35.9682C63.9818 34.0194 63.0569 32.1899 61.8456 30.5303C61.2935 29.7738 60.6796 29.0515 60.009 28.3638C60.4381 26.4816 60.6713 24.3515 60.6411 22.5112C60.5978 19.8785 60.0717 18.3344 59.0328 17.7902C58.4732 17.4968 56.7703 16.6054 47.5532 20.8246C47.335 20.9245 47.1311 21.0475 46.9424 21.1884C46.321 21.0214 45.6859 20.8669 45.0469 20.7283C44.9699 20.7115 44.8906 20.6966 44.8131 20.6803C45.56 19.0487 45.9961 17.2766 46.078 15.4472C46.1035 14.877 45.6622 14.3941 45.0919 14.3688C44.5232 14.3405 44.0389 14.7845 44.0135 15.3547C43.8788 18.3627 42.6311 21.1928 40.5002 23.3238C39.2271 24.5969 37.7364 25.5217 36.1476 26.1042C33.3923 25.7175 30.5859 25.7175 27.8306 26.1042C26.2417 25.5217 24.7511 24.5969 23.478 23.3238C21.2046 21.0504 19.9525 18.0278 19.9525 14.8127C19.9525 11.5974 21.2046 8.57492 23.478 6.30153C25.7514 4.02801 28.7741 2.77594 31.9891 2.77594C35.2041 2.77594 38.2268 4.02801 40.5002 6.30153C41.4138 7.2151 42.1687 8.25764 42.7441 9.39988C43.0008 9.90964 43.6222 10.1149 44.1318 9.85805C44.6415 9.60151 44.8466 8.98012 44.5899 8.4705C43.9156 7.13107 43.0313 5.90979 41.9617 4.84007C39.2979 2.17632 35.7563 0.709312 31.9892 0.709312C28.2222 0.709312 24.6805 2.17632 22.0168 4.84007C19.353 7.50396 17.886 11.0455 17.886 14.8125C17.886 18.5795 19.353 22.1212 22.0168 24.785C22.7852 25.5533 23.6211 26.2141 24.5053 26.7677C24.5055 26.7677 24.5058 26.7676 24.5061 26.7676C23.8636 26.9345 23.226 27.122 22.5955 27.3328C22.0542 27.5138 21.7622 28.0991 21.9432 28.6405C22.124 29.1817 22.7096 29.4737 23.2507 29.2929C28.8858 27.4091 35.0927 27.4091 40.7278 29.2929C40.8365 29.3292 40.9469 29.3464 41.0555 29.3464C41.4877 29.3464 41.8907 29.073 42.0353 28.6405C42.2163 28.0992 41.9243 27.5138 41.383 27.3328C40.7525 27.122 40.1149 26.9344 39.4724 26.7676C39.4727 26.7676 39.4729 26.7677 39.4732 26.7677C40.3575 26.2141 41.1933 25.5533 41.9617 24.785C42.6415 24.1052 43.2415 23.3629 43.7625 22.574C44.0473 22.6293 44.3301 22.6873 44.6087 22.7477C44.9797 22.8283 45.3492 22.9148 45.7153 23.0057C45.7038 23.0506 45.692 23.0954 45.6824 23.141C45.1785 25.5324 45.2112 27.6474 45.7796 29.427C46.2905 31.0266 47.2125 32.3225 48.5198 33.2789C50.0605 34.406 51.9207 34.8929 53.6057 34.8929C54.8738 34.8929 56.043 34.6169 56.9016 34.1306C57.8729 33.5805 58.6866 32.4214 59.3308 30.681C59.6285 31.0285 59.9107 31.3845 60.1767 31.7489C61.2551 33.2263 62.0784 34.8546 62.6237 36.5883C62.9439 37.6066 63.7387 38.4078 64.7498 38.7319L67.658 39.6635C68.4211 39.908 68.9338 40.6103 68.9338 41.4116V46.2339C68.9338 47.0351 68.4211 47.7375 67.658 47.982L62.9724 49.4828C62.2228 49.7232 61.5883 50.2383 61.1861 50.9336C59.3452 54.115 56.451 56.7477 52.5833 58.7586C52.1365 58.9912 51.827 59.407 51.7338 59.8999L50.2331 67.8462C50.1916 68.0652 49.9998 68.2239 49.777 68.2239H44.8975C44.6747 68.2239 44.4829 68.065 44.4414 67.8462L43.6102 63.4546C43.4466 62.5905 42.6362 62.0166 41.7639 62.1487C39.6621 62.4666 37.4963 62.6276 35.3271 62.6276C33.7132 62.6276 32.12 62.5376 30.5914 62.3599C29.7462 62.2627 28.9588 62.8389 28.8009 63.6734L28.011 67.8462C27.9696 68.0652 27.7778 68.2239 27.5549 68.2239H22.6755C22.4526 68.2239 22.2609 68.065 22.2188 67.8429L20.7739 60.3377C20.6808 59.8541 20.3771 59.443 19.9402 59.2096C13.3472 55.6899 9.86234 49.8097 9.86234 42.2049C9.86234 38.3626 10.703 34.965 12.3608 32.1061C13.9078 29.4382 16.1673 27.2324 19.0765 25.5496C19.5705 25.2638 19.7392 24.6317 19.4536 24.1376C19.1679 23.6437 18.5359 23.4752 18.0418 23.7606C12.4007 27.0238 8.99842 32.0582 8.06169 38.4523V38.4522C7.96226 38.4432 7.8627 38.4346 7.76355 38.4243C7.78157 37.7344 7.65677 37.0383 7.38497 36.3627C6.78549 34.8725 5.55409 33.797 4.24766 33.6227C3.21816 33.4848 2.23844 33.9219 1.55853 34.8202C0.572715 36.1229 0.733436 37.1538 1.0417 37.7892C1.56214 38.8616 2.89991 39.6201 5.1199 40.097C5.05889 40.1884 4.99177 40.2802 4.91828 40.3724C3.60658 42.0174 2.06122 42.3812 1.05779 42.4154C0.470375 42.4353 0 42.9069 0 43.4947V43.4997C0 44.0795 0.457478 44.5524 1.03671 44.5789C1.1109 44.5823 1.18842 44.5841 1.26913 44.5841C2.5388 44.5841 4.57659 44.1158 6.53436 41.6609C6.84346 41.2735 7.09529 40.8647 7.28887 40.4423C7.48384 40.4643 7.67119 40.4832 7.85063 40.4998C7.85063 40.4994 7.85063 40.4991 7.85077 40.4987C7.81555 41.0587 7.79599 41.6268 7.79599 42.2049C7.79599 46.5076 8.82175 50.344 10.8446 53.6079C12.7097 56.6171 15.3801 59.081 18.7842 60.934L20.189 68.2303C20.4149 69.424 21.4606 70.2904 22.6755 70.2904H27.5549C28.7698 70.2904 29.8156 69.424 30.0415 68.2303L30.7556 64.4573C32.2389 64.6144 33.7745 64.694 35.3269 64.694C37.4569 64.694 39.5844 64.5457 41.6579 64.2528L42.4107 68.2306C42.6367 69.4243 43.6825 70.2906 44.8972 70.2906H49.7767C50.9916 70.2906 52.0373 69.4241 52.2634 68.23L53.7245 60.4934C57.8525 58.3106 60.964 55.4431 62.9745 51.9685C63.1194 51.7181 63.3425 51.5344 63.6027 51.451L68.2881 49.9502C69.9102 49.4303 71 47.9369 71 46.2336V41.4113C71 39.7081 69.9102 38.2148 68.2881 37.6952ZM58.4194 25.4148C58.0217 28.8159 56.9549 31.7252 55.883 32.3323C54.6646 33.0225 51.8516 33.1558 49.7397 31.6108C47.6252 30.0641 46.9214 27.2826 47.7042 23.567C47.7042 23.5669 47.7042 23.5669 47.7042 23.5669C47.7829 23.1937 48.048 22.8709 48.4134 22.7036C53.5864 20.3357 56.5688 19.5612 57.6768 19.5612C57.8441 19.5612 57.9686 19.5788 58.0515 19.6113C58.3843 19.966 58.8209 21.9824 58.4194 25.4148ZM2.90115 36.8869C2.79424 36.6664 3.04662 36.2788 3.20665 36.0672C3.46028 35.7321 3.69394 35.6636 3.87047 35.6636C3.90777 35.6636 3.94258 35.6667 3.97447 35.671C4.44956 35.7344 5.11519 36.2572 5.46783 37.1337C5.5509 37.34 5.65878 37.6819 5.68402 38.1082C4.25362 37.8118 3.1423 37.3846 2.90115 36.8869Z" fill="white"/>
<path d="M32.9925 13.6283V9.9307C34.2676 10.0218 34.7413 10.6046 35.1784 10.6046C35.7249 10.6046 35.98 9.91254 35.98 9.56641C35.98 8.67378 34.2312 8.29132 32.9925 8.25485V7.76285C32.9925 7.5443 32.7192 7.34392 32.446 7.34392C32.1362 7.34392 31.9177 7.5443 31.9177 7.76285V8.29105C30.1872 8.47326 28.4567 9.38406 28.4567 11.6792C28.4567 14.0108 30.2783 14.6666 31.9177 15.2495V19.5301C30.0596 19.3844 29.5679 18.1093 28.9668 18.1093C28.5114 18.1093 28.1289 18.7104 28.1289 19.1477C28.1289 20.0402 29.659 21.2606 31.9177 21.2971V21.8618C31.9177 22.0803 32.1364 22.2807 32.446 22.2807C32.7194 22.2807 32.9925 22.0803 32.9925 21.8618V21.2424C34.9599 20.9691 36.3078 19.7305 36.3078 17.49C36.3078 15.0127 34.5773 14.2111 32.9925 13.6283ZM32.027 13.2823C31.0615 12.918 30.2783 12.5355 30.2783 11.4973C30.2783 10.55 31.0069 10.0946 32.027 9.96717V13.2823ZM32.8831 19.4937V15.6502C33.7756 16.0327 34.486 16.5427 34.486 17.6902C34.486 18.7287 33.8667 19.3116 32.8831 19.4937Z" fill="white"/>
</svg>
