<svg width="71" height="71" viewBox="0 0 71 71" fill="none" xmlns="http://www.w3.org/2000/svg">
<path d="M67.88 30.2986H66.8405V27.178V16.0842C66.8405 12.4521 63.8856 9.4972 60.2536 9.4972H31.6902L12.42 3.99138C12.4144 3.98985 12.4088 3.98902 12.4032 3.98749C12.3975 3.98597 12.3921 3.98375 12.3864 3.98236C12.3748 3.97945 12.3633 3.97806 12.3518 3.97557C12.3339 3.97182 12.316 3.96794 12.2981 3.96503C12.2819 3.96239 12.2659 3.96073 12.2497 3.95879C12.2308 3.95657 12.2121 3.95463 12.1934 3.95352C12.1781 3.95269 12.163 3.95255 12.1478 3.95227C12.1284 3.95199 12.1091 3.95186 12.0898 3.95269C12.0755 3.95324 12.0612 3.95463 12.0471 3.95574C12.0273 3.9574 12.0074 3.95921 11.9879 3.96212C11.9746 3.96406 11.9614 3.96655 11.9482 3.96891C11.928 3.97252 11.908 3.9764 11.8882 3.98125C11.8758 3.9843 11.8638 3.98777 11.8516 3.99124C11.8313 3.99706 11.8114 4.00303 11.7914 4.00996C11.7802 4.01398 11.7691 4.01828 11.7578 4.02272C11.7377 4.03048 11.7178 4.03866 11.6982 4.04768C11.6878 4.05253 11.6777 4.0578 11.6674 4.06293C11.6479 4.07278 11.6286 4.08276 11.6097 4.09399C11.5999 4.09968 11.5905 4.10578 11.5807 4.11188C11.5622 4.12353 11.5439 4.13546 11.5261 4.14835C11.5168 4.15501 11.5078 4.16222 11.4986 4.16929C11.4816 4.18247 11.4647 4.19592 11.4485 4.2102C11.4393 4.21824 11.4306 4.2267 11.4217 4.23502C11.4064 4.24945 11.3913 4.26387 11.3769 4.27912C11.3679 4.28869 11.3594 4.29867 11.3507 4.30866C11.3375 4.32377 11.3245 4.33903 11.3121 4.35497C11.3033 4.36648 11.2949 4.37827 11.2865 4.39006C11.2755 4.40545 11.2647 4.42098 11.2547 4.43693C11.2461 4.45052 11.2382 4.46466 11.2303 4.47867C11.2216 4.49406 11.2128 4.50959 11.2049 4.52554C11.1972 4.54107 11.1902 4.55702 11.1832 4.57297C11.1762 4.58864 11.1694 4.60431 11.1633 4.62039C11.157 4.63731 11.1514 4.65464 11.1457 4.67212C11.1421 4.68335 11.1377 4.69389 11.1344 4.70526C11.1327 4.71094 11.132 4.71649 11.1305 4.72204C11.129 4.72772 11.1267 4.73313 11.1253 4.73882L9.9361 9.49692H6.58759C2.96286 9.49692 0.0130351 12.4399 0.00110937 16.062C0.000970701 16.0695 0 16.0766 0 16.084V52.1386C0 52.7127 0.467323 53.1786 1.04004 53.1786C1.61414 53.1786 2.08007 52.7127 2.08007 52.1386V20.881C3.25934 21.9898 4.84491 22.6713 6.58759 22.6713H60.2536C60.2549 22.6713 60.256 22.6711 60.2573 22.6711C62.7406 22.6731 64.7605 24.6941 64.7605 27.1781V34.4589H53.3184C53.3177 34.4589 53.3172 34.4591 53.3165 34.4591C53.2864 34.4591 53.2564 34.4609 53.2266 34.4635C53.1935 34.4664 53.1607 34.4711 53.1286 34.4771C53.1237 34.4779 53.119 34.4783 53.1141 34.4793C53.087 34.4847 53.0603 34.4919 53.0338 34.4994C53.028 34.5011 53.0221 34.5022 53.0164 34.504C52.9928 34.5112 52.9699 34.5198 52.947 34.5285C52.9383 34.5319 52.9294 34.5346 52.9207 34.5382C52.9016 34.5461 52.8831 34.5554 52.8647 34.5644C52.8525 34.5703 52.8401 34.5757 52.8282 34.5819C52.8138 34.5895 52.8002 34.5983 52.7863 34.6066C52.7709 34.6158 52.7553 34.6246 52.7403 34.6346C52.7302 34.6413 52.7209 34.6489 52.7112 34.656C52.6934 34.6687 52.6755 34.6813 52.6586 34.6954C52.6512 34.7015 52.6445 34.7083 52.6374 34.7145C52.6192 34.7303 52.6011 34.746 52.5839 34.7632C52.5737 34.7733 52.5646 34.7844 52.555 34.7949C52.5416 34.8095 52.5277 34.8238 52.5149 34.8393C52.4934 34.8655 52.4733 34.8927 52.4545 34.9208C52.4541 34.9213 52.4536 34.9218 52.4534 34.9224L46.9068 43.2428C46.8681 43.3008 46.8354 43.3622 46.8094 43.4261C46.7996 43.45 46.7917 43.4742 46.7838 43.4984C46.7814 43.5057 46.7784 43.5128 46.7762 43.5201C46.7684 43.5458 46.7624 43.5717 46.7567 43.5975C46.7552 43.6043 46.7533 43.611 46.7519 43.6178C46.7473 43.6411 46.7443 43.6645 46.7413 43.6879C46.7401 43.6979 46.7382 43.7079 46.7372 43.718C46.7352 43.7373 46.7348 43.7564 46.7341 43.7757C46.7334 43.7904 46.7322 43.8051 46.7322 43.8199C46.7322 43.8342 46.7334 43.8485 46.734 43.8628C46.7347 43.8825 46.7352 43.9023 46.7372 43.922C46.7382 43.9316 46.74 43.9411 46.7412 43.9507C46.7443 43.9746 46.7473 43.9984 46.752 44.0221C46.7533 44.0286 46.7552 44.035 46.7567 44.0415C46.7624 44.0676 46.7685 44.0937 46.7763 44.1196C46.7785 44.127 46.7816 44.134 46.7839 44.1415C46.7918 44.1657 46.7997 44.1899 46.8096 44.2138C46.8356 44.2776 46.8684 44.3391 46.9072 44.3972L52.4536 52.7164C52.4539 52.7168 52.4542 52.7171 52.4545 52.7175C52.4768 52.7507 52.5012 52.7823 52.527 52.8127C52.5355 52.8226 52.5445 52.8319 52.5532 52.8414C52.5708 52.8606 52.5891 52.8792 52.6081 52.8971C52.6194 52.9077 52.6305 52.9179 52.6418 52.9278C52.6621 52.9451 52.683 52.9613 52.7045 52.9771C52.7142 52.9842 52.7235 52.992 52.7333 52.9986C52.7645 53.0198 52.7969 53.0394 52.8303 53.0571C52.8387 53.0616 52.8475 53.0653 52.8559 53.0695C52.8826 53.0828 52.9097 53.0951 52.9376 53.1061C52.9484 53.1104 52.9592 53.1143 52.9702 53.1182C52.9967 53.1276 53.0236 53.1359 53.051 53.1433C53.0623 53.1462 53.0734 53.1492 53.0847 53.152C53.1129 53.1585 53.1415 53.1635 53.1704 53.1677C53.181 53.1692 53.1914 53.1713 53.2019 53.1725C53.2377 53.1765 53.274 53.1788 53.3109 53.179C53.3138 53.179 53.3167 53.1796 53.3198 53.1796C53.3203 53.1796 53.321 53.1795 53.3217 53.1795H64.7609V60.4608C64.7609 62.9461 62.7391 64.9679 60.2541 64.9679H6.58815C4.10315 64.9679 2.08132 62.9461 2.08132 60.4608C2.08132 60.4554 2.08063 60.4501 2.08049 60.4447V56.2993C2.08049 55.7266 1.61455 55.2592 1.04045 55.2592C0.467739 55.2592 0.000416015 55.7266 0.000416015 56.2993V60.4608C0.000416015 60.4716 0.00166406 60.4822 0.00208007 60.4929C0.019414 64.1102 2.96688 67.048 6.58815 67.048H60.2541C63.8857 67.048 66.8404 64.0936 66.841 60.4619C66.841 60.4618 66.841 60.4617 66.841 60.4614V53.1795H67.8804C69.6005 53.1795 71 51.78 71 50.0599V33.4182C70.9996 31.6981 69.6001 30.2986 67.88 30.2986ZM12.8826 6.28681L31.2343 11.5304C31.2351 11.5307 31.2361 11.5308 31.2369 11.5311L43.5365 15.0453H10.6935L12.8826 6.28681ZM64.7603 22.3808C63.5812 21.2722 61.9959 20.5909 60.2536 20.5909C60.2518 20.5909 60.2502 20.5912 60.2482 20.5912H6.58759C4.10246 20.5912 2.08063 18.5694 2.08063 16.0842C2.08063 13.5991 4.10246 11.5773 6.58759 11.5773H9.41622L8.54952 15.0453H6.58787C6.01349 15.0453 5.54783 15.511 5.54783 16.0853C5.54783 16.6597 6.01349 17.1254 6.58787 17.1254H9.35798C9.35936 17.1254 9.36089 17.1257 9.36241 17.1257C9.36352 17.1257 9.36463 17.1254 9.3656 17.1254H50.9589C50.9603 17.1254 50.9615 17.1257 50.9628 17.1257C50.9639 17.1257 50.965 17.1254 50.9661 17.1254H58.8657C59.4401 17.1254 59.9057 16.6597 59.9057 16.0853C59.9057 15.511 59.4401 15.0453 58.8657 15.0453H51.108L38.9702 11.5773H60.2535C62.7385 11.5773 64.7603 13.5991 64.7603 16.0842V22.3808ZM68.9195 50.0593C68.9195 50.6325 68.4532 51.0988 67.88 51.0988H53.875L49.0217 43.8194L53.875 36.5389H67.88C67.8946 36.5389 67.9087 36.5372 67.9232 36.5366C68.272 36.5318 68.6071 36.4697 68.9195 36.359V50.0593ZM67.88 34.4577C67.8728 34.4577 67.8657 34.4586 67.8585 34.4588H66.8405V32.3787H67.88C68.4532 32.3787 68.9195 32.8451 68.9195 33.4182C68.9195 33.9913 68.4532 34.4577 67.88 34.4577Z" fill="white"/>
<path d="M57.4792 40.0058C55.3764 40.0058 53.6658 41.7166 53.6658 43.8194C53.6658 45.9222 55.3764 47.6328 57.4792 47.6328C59.5821 47.6328 61.2927 45.9222 61.2927 43.8194C61.2927 41.7166 59.5821 40.0058 57.4792 40.0058ZM57.4792 45.5528C56.5234 45.5528 55.7458 44.7752 55.7458 43.8194C55.7458 42.8635 56.5234 42.0858 57.4792 42.0858C58.4351 42.0858 59.2126 42.8635 59.2126 43.8194C59.2126 44.7752 58.4351 45.5528 57.4792 45.5528Z" fill="white"/>
</svg>
