<svg width="71" height="71" viewBox="0 0 71 71" fill="none" xmlns="http://www.w3.org/2000/svg">
<g clip-path="url(#clip0)">
<path d="M32.7619 48.156C33.3041 47.6138 33.3041 46.7362 32.7619 46.194C32.2191 45.6534 31.3399 45.6534 30.7966 46.194C30.2549 46.7362 30.2549 47.6138 30.7966 48.156C31.3399 48.6966 32.2191 48.6966 32.7619 48.156Z" fill="white"/>
<path d="M26.1837 15.2496C26.1837 23.6582 33.0381 30.4997 41.4631 30.4997C49.8882 30.4997 56.7426 23.6582 56.7426 15.2496C56.7426 6.84097 49.8882 0 41.4631 0C33.0381 0 26.1837 6.84097 26.1837 15.2496ZM53.9648 15.2496C53.9648 22.1295 48.3566 27.7268 41.4631 27.7268C34.5697 27.7268 28.9615 22.1295 28.9615 15.2496C28.9615 8.37015 34.5697 2.7729 41.4631 2.7729C48.3566 2.7729 53.9648 8.37015 53.9648 15.2496Z" fill="white"/>
<path d="M16.0691 70.5899C16.6075 71.1316 17.484 71.1376 18.0295 70.6013L24.7639 63.9797C25.908 62.8378 26.2559 61.1472 25.7528 59.6776L27.2014 58.2833C27.9813 57.5315 29.0082 57.1171 30.0937 57.1171H48.5596C51.8356 57.1171 54.9319 55.8615 57.2793 53.5815C57.3759 53.4878 56.5461 54.4634 69.877 38.5616C71.8543 36.2269 71.5585 32.7211 69.217 30.7456C66.8903 28.7885 63.4048 29.0696 61.4221 31.3642L53.2256 39.7723C52.1905 38.5009 50.6122 37.7084 48.9069 37.7084H33.4175C31.2134 36.7881 28.8747 36.3223 26.4616 36.3223C19.7728 36.3223 13.9323 39.4055 10.7979 45.1864C9.47742 44.9367 8.08473 45.3354 7.08282 46.3353L0.474877 52.9499C-0.0646132 53.4899 -0.0656987 54.3637 0.472706 54.9054L16.0691 70.5899ZM26.4611 39.0946C28.5886 39.0946 30.6456 39.522 32.5762 40.3649C32.752 40.4418 32.9415 40.4813 33.1331 40.4813H48.9069C50.413 40.4813 51.6852 41.7072 51.6852 43.2537C51.6852 44.7829 50.4391 46.0266 48.9069 46.0266H37.5738C36.8069 46.0266 36.1849 46.6474 36.1849 47.4128C36.1849 48.1787 36.8069 48.7989 37.5738 48.7989H48.9069C51.9707 48.7989 54.463 46.3115 54.463 43.2537C54.463 43.0099 54.4456 42.7683 54.4142 42.5289C62.3432 34.3944 63.4612 33.2514 63.509 33.1946C64.499 32.0283 66.2564 31.8804 67.4254 32.8641C68.5956 33.8516 68.7438 35.6045 67.7511 36.7773L55.2923 51.6423C53.473 53.3854 51.0844 54.3447 48.5596 54.3447H30.0937C28.2842 54.3447 26.5712 55.0354 25.2719 56.2883L24.0914 57.4253L13.2094 46.565C15.7527 41.803 20.525 39.0946 26.4611 39.0946ZM9.04865 48.2946C9.50673 47.8374 10.2101 47.7551 10.7686 48.0996C11.0091 48.2459 10.3187 47.6186 22.7997 60.0579C23.3549 60.612 23.3251 61.495 22.8073 62.0118L17.0661 67.6567L3.41765 53.9309L9.04865 48.2946Z" fill="white"/>
<path d="M39.7963 6.93195V8.55647C38.1795 9.1285 37.018 10.6696 37.018 12.4772C37.018 14.7702 38.8872 16.6363 41.1852 16.6363C41.951 16.6363 42.5741 17.2581 42.5741 18.0225C42.5741 18.7868 41.951 19.4086 41.1852 19.4086C40.592 19.4086 39.951 19.0365 39.3817 18.3599C38.8878 17.7738 38.0118 17.6985 37.4245 18.1909C36.8373 18.6839 36.7613 19.5581 37.2552 20.1442C37.9976 21.0256 38.8709 21.6398 39.7963 21.9497V23.5677C39.7963 24.3337 40.4183 24.9539 41.1852 24.9539C41.9521 24.9539 42.5741 24.3337 42.5741 23.5677V21.9432C44.1909 21.3706 45.3524 19.8295 45.3524 18.0225C45.3524 15.729 43.4832 13.8634 41.1852 13.8634C40.4194 13.8634 39.7963 13.2415 39.7963 12.4772C39.7963 11.7129 40.4194 11.0905 41.1852 11.0905C41.6775 11.0905 42.1969 11.3413 42.6875 11.8153C43.239 12.3477 44.1182 12.3331 44.6517 11.7833C45.1852 11.233 45.1706 10.3554 44.6197 9.82294C43.9147 9.14204 43.2091 8.7569 42.5741 8.54672V6.93195C42.5741 6.16601 41.9521 5.54523 41.1852 5.54523C40.4183 5.54523 39.7963 6.16601 39.7963 6.93195Z" fill="white"/>
</g>
<defs>
<clipPath id="clip0">
<rect width="71" height="71" fill="white"/>
</clipPath>
</defs>
</svg>
