<svg width="67" height="67" viewBox="0 0 67 67" fill="none" xmlns="http://www.w3.org/2000/svg">
<g clip-path="url(#clip0)">
<path d="M61.9603 18.1787L61.9583 18.1265C61.9291 17.483 61.9097 16.8021 61.8979 16.0445C61.8433 12.3503 58.9066 9.29457 55.2119 9.08806C47.5086 8.65817 41.5494 6.14629 36.4576 1.18336L36.4142 1.14195C34.7534 -0.380814 32.2482 -0.380814 30.5869 1.14195L30.5434 1.18336C25.4517 6.14629 19.4925 8.65817 11.7892 9.08857C8.09497 9.29457 5.1578 12.3503 5.1031 16.0451C5.09186 16.7975 5.07192 17.4784 5.04278 18.1265L5.03972 18.2477C4.88995 26.1028 4.70388 35.8789 7.97433 44.7523C9.77262 49.6319 12.4961 53.8735 16.0687 57.3602C20.1376 61.331 25.467 64.4833 31.9087 66.7294C32.1183 66.8025 32.3361 66.8618 32.5579 66.9063C32.8708 66.9686 33.1856 66.9998 33.5005 66.9998C33.8154 66.9998 34.1308 66.9686 34.4431 66.9063C34.665 66.8618 34.8843 66.802 35.0949 66.7284C41.5289 64.4782 46.8527 61.3243 50.9181 57.3541C54.4891 53.8664 57.2126 49.6237 59.0124 44.743C62.2951 35.8431 62.1096 26.0486 61.9603 18.1787ZM55.3238 43.3828C51.8745 52.7352 44.8331 59.158 33.7975 63.0173C33.7582 63.0306 33.7162 63.0424 33.6728 63.051C33.5588 63.0735 33.4428 63.0735 33.3272 63.0505C33.2843 63.0418 33.2424 63.0306 33.2035 63.0173C22.1562 59.1651 15.1102 52.7459 11.6634 43.3931C8.64907 35.2139 8.8198 26.2398 8.9706 18.3228L8.97162 18.2789C9.00229 17.5985 9.02274 16.8859 9.03398 16.1028C9.05852 14.4625 10.3651 13.1053 12.0085 13.0138C16.3677 12.7705 20.1974 11.9281 23.7163 10.4386C27.2305 8.95107 30.3517 6.85426 33.2572 4.02852C33.4049 3.9038 33.5966 3.90328 33.7438 4.02852C36.6498 6.85426 39.771 8.95107 43.2848 10.4386C46.8037 11.9281 50.6333 12.7705 54.9931 13.0138C56.6365 13.1053 57.943 14.4625 57.9671 16.1033C57.9788 16.8905 57.9993 17.6031 58.0299 18.2789C58.1802 26.205 58.3469 35.1863 55.3238 43.3828Z" fill="white"/>
<path d="M33.4996 16.8037C24.2924 16.8037 16.8022 24.2944 16.8022 33.501C16.8022 42.7082 24.2924 50.1989 33.4996 50.1989C42.7063 50.1989 50.1969 42.7082 50.1969 33.501C50.1969 24.2944 42.7063 16.8037 33.4996 16.8037ZM33.4996 46.267C26.4603 46.267 20.7336 40.5403 20.7336 33.501C20.7336 26.4617 26.4603 20.7351 33.4996 20.7351C40.5384 20.7351 46.265 26.4617 46.265 33.501C46.265 40.5403 40.5384 46.267 33.4996 46.267Z" fill="white"/>
<path d="M38.2984 28.3172L30.543 36.0727L28.438 33.9677C27.6702 33.1999 26.4255 33.1999 25.6577 33.9677C24.8905 34.7355 24.8905 35.9802 25.6577 36.7475L29.1531 40.2428C29.537 40.6267 30.04 40.8184 30.543 40.8184C31.046 40.8184 31.549 40.6267 31.9328 40.2428L41.0787 31.097C41.846 30.3292 41.846 29.0845 41.0787 28.3172C40.3109 27.549 39.0662 27.549 38.2984 28.3172Z" fill="white"/>
</g>
<defs>
<clipPath id="clip0">
<rect width="67" height="67" fill="white"/>
</clipPath>
</defs>
</svg>
