<svg width="878" height="614" viewBox="0 0 878 614" fill="none" xmlns="http://www.w3.org/2000/svg">
<path opacity="0.5" fill-rule="evenodd" clip-rule="evenodd" d="M868.075 614H1.2691C-9.7058 466.198 136.012 373.062 215.18 322.462C225.465 315.889 234.626 310.033 242.175 304.869C275.263 282.232 299.799 232.801 325.894 180.228C373.97 83.3717 427.337 -24.1455 549.226 5.59069C656.389 31.8024 817.447 143.332 878 310.181V587.297C874.996 596.129 871.691 605.031 868.075 614Z" fill="url(#paint0_linear)"/>
<g clip-path="url(#clip0)">
<path d="M589.094 175.976C585.788 175.976 582.285 175.976 578.782 176.364H578.199C514.394 182.395 462 242.96 462 310.461C462 388.859 534.82 398 589.094 398C642.98 398 705.812 389.831 714.566 325.441C723.708 249.961 663.793 175.976 589.094 175.976Z" fill="#FF637B"/>
<path d="M714.566 325.441C705.812 389.831 642.98 398 589.094 398V175.976C663.793 175.976 723.708 249.961 714.566 325.441Z" fill="#E63950"/>
<path d="M656.595 98.2927L637.141 157.301H541.046L521.593 98.2927C520.423 95.3747 521.008 92.0667 522.758 89.5388C524.703 87.0109 527.621 85.4531 530.734 85.4531H561.664C565.555 74.1688 576.449 66 589.094 66C601.738 66 612.438 74.1688 616.523 85.4531H647.453C650.566 85.4531 653.484 87.0109 655.429 89.5388C657.18 92.0667 657.765 95.3747 656.595 98.2927Z" fill="#FF637B"/>
<path d="M656.595 98.2927L637.141 157.301H589.094V66C601.738 66 612.437 74.1688 616.523 85.4531H647.453C650.566 85.4531 653.484 87.0109 655.429 89.5388C657.18 92.0667 657.765 95.3747 656.595 98.2927Z" fill="#E63950"/>
<path d="M794 261.828C794 272.527 785.246 281.281 774.547 281.281L725.266 300.734L676.633 281.281C665.934 281.281 657.18 272.527 657.18 261.828C657.18 251.129 665.934 242.375 676.633 242.375H774.547C785.246 242.375 794 251.129 794 261.828Z" fill="#FFDA2D"/>
<path d="M794 261.828C794 272.527 785.246 281.281 774.547 281.281L725.266 300.734V242.375H774.547C785.246 242.375 794 251.129 794 261.828Z" fill="#FDBF00"/>
<path d="M794 300.734C794 311.434 785.246 320.188 774.547 320.188L725.266 339.641L676.633 320.188C665.934 320.188 657.18 311.434 657.18 300.734C657.18 290.035 665.934 281.281 676.633 281.281H774.547C785.246 281.281 794 290.035 794 300.734Z" fill="#FDBF00"/>
<path d="M794 300.734C794 311.434 785.246 320.188 774.547 320.188L725.266 339.641V281.281H774.547C785.246 281.281 794 290.035 794 300.734Z" fill="#FF9100"/>
<path d="M794 339.641C794 350.34 785.246 359.094 774.547 359.094L725.266 378.547L676.633 359.094C665.934 359.094 657.18 350.34 657.18 339.641C657.18 328.941 665.934 320.188 676.633 320.188H774.547C785.246 320.188 794 328.941 794 339.641Z" fill="#FFDA2D"/>
<path d="M794 339.641C794 350.34 785.246 359.094 774.547 359.094L725.266 378.547V320.188H774.547C785.246 320.188 794 328.941 794 339.641Z" fill="#FDBF00"/>
<path d="M794 378.547C794 389.246 785.246 398 774.547 398H676.633C665.934 398 657.18 389.246 657.18 378.547C657.18 367.848 665.934 359.094 676.633 359.094H774.547C785.246 359.094 794 367.848 794 378.547Z" fill="#FDBF00"/>
<path d="M794 378.547C794 389.246 785.246 398 774.547 398H725.266V359.094H774.547C785.246 359.094 794 367.848 794 378.547Z" fill="#FF9100"/>
<path d="M657.18 163.914C657.18 174.613 648.426 183.367 637.727 183.367H540.461C529.762 183.367 521.008 174.613 521.008 163.914C521.008 153.215 529.762 144.461 540.461 144.461H637.727C648.426 144.461 657.18 153.215 657.18 163.914Z" fill="#FFDA2D"/>
<path d="M657.18 163.914C657.18 174.613 648.426 183.367 637.727 183.367H589.094V144.461H637.727C648.426 144.461 657.18 153.215 657.18 163.914Z" fill="#FDBF00"/>
<g clip-path="url(#clip1)">
<path d="M600.755 330.806V339.012C600.755 345.824 595.258 351.322 588.445 351.322C581.633 351.322 576.135 345.824 576.135 339.012V330.806C576.135 328.507 577.94 326.702 580.239 326.702H596.652C598.951 326.702 600.755 328.507 600.755 330.806Z" fill="#4A696F"/>
<path d="M600.755 330.806V339.012C600.755 345.824 595.258 351.322 588.445 351.322V326.702H596.652C598.951 326.702 600.755 328.507 600.755 330.806Z" fill="#384949"/>
<path d="M588.445 228.221C562.676 228.221 543.308 248.983 543.308 273.358C543.308 287.966 550.284 301.671 562.512 310.289C565.877 312.668 567.928 316.854 567.928 321.531V322.599C567.928 329.41 573.426 334.909 580.239 334.909H596.652C603.464 334.909 608.962 329.41 608.962 322.599V321.285C608.962 316.854 611.342 312.586 615.445 309.468C626.935 300.851 633.583 287.72 633.583 273.358C633.583 248.573 613.641 228.303 588.445 228.221Z" fill="#FFE470"/>
<path d="M633.583 273.358C633.583 287.72 626.935 300.851 615.445 309.468C611.342 312.586 608.962 316.854 608.962 321.285V322.599C608.962 329.41 603.464 334.909 596.652 334.909H588.445V228.221C613.641 228.303 633.583 248.573 633.583 273.358Z" fill="#FDBF00"/>
<path d="M654.373 277.461H645.893C643.625 277.461 641.789 275.626 641.789 273.358C641.789 271.089 643.625 269.255 645.893 269.255H654.373C656.641 269.255 658.477 271.089 658.477 273.358C658.477 275.626 656.641 277.461 654.373 277.461Z" fill="#F4D7AF"/>
<path d="M530.998 277.461H522.517C520.25 277.461 518.414 275.626 518.414 273.358C518.414 271.089 520.25 269.255 522.517 269.255H530.998C533.265 269.255 535.101 271.089 535.101 273.358C535.101 275.626 533.265 277.461 530.998 277.461Z" fill="#FAECD8"/>
<path d="M626.166 235.638C624.563 234.035 624.563 231.438 626.166 229.835L631.968 224.033C633.571 222.43 636.168 222.43 637.77 224.033C639.373 225.636 639.373 228.232 637.77 229.835L631.968 235.638C630.365 237.241 627.768 237.241 626.166 235.638Z" fill="#F4D7AF"/>
<path d="M539.12 322.683C537.517 321.08 537.517 318.484 539.12 316.881L544.923 311.078C546.526 309.475 549.122 309.475 550.725 311.078C552.328 312.68 552.328 315.278 550.725 316.881L544.923 322.683C543.32 324.286 540.723 324.286 539.12 322.683Z" fill="#FAECD8"/>
<path d="M544.923 235.638L539.12 229.835C537.517 228.232 537.517 225.636 539.12 224.033C540.723 222.43 543.32 222.43 544.923 224.033L550.725 229.835C552.328 231.438 552.328 234.035 550.725 235.638C549.122 237.241 546.526 237.241 544.923 235.638Z" fill="#FAECD8"/>
<path d="M631.968 322.683L626.166 316.881C624.563 315.278 624.563 312.68 626.166 311.078C627.768 309.475 630.365 309.475 631.968 311.078L637.77 316.881C639.373 318.484 639.373 321.08 637.77 322.683C636.168 324.286 633.571 324.286 631.968 322.683Z" fill="#F4D7AF"/>
<path d="M611.261 278.117L589.594 263.756L596.242 250.542C597.145 248.738 596.57 246.604 594.928 245.373C593.287 244.224 591.072 244.387 589.676 245.865L565.056 270.486C564.153 271.306 563.743 272.537 563.825 273.768C563.99 274.999 564.646 276.066 565.63 276.804L587.297 291.166L580.649 304.379C579.746 306.185 580.321 308.319 581.962 309.55C583.604 310.699 585.819 310.534 587.214 309.058L611.835 284.437C612.738 283.616 613.148 282.385 613.066 281.154C612.901 279.923 612.245 278.856 611.261 278.117Z" fill="#FDBF00"/>
<path d="M613.066 281.154C613.148 282.385 612.738 283.616 611.835 284.437L588.445 307.826V247.096L589.676 245.865C591.072 244.387 593.287 244.224 594.928 245.373C596.57 246.604 597.145 248.738 596.242 250.542L589.594 263.756L611.261 278.117C612.245 278.856 612.901 279.923 613.066 281.154Z" fill="#FF9F00"/>
</g>
</g>
<g clip-path="url(#clip2)">
<path d="M493.692 139.309C492.255 124.859 485.8 111.237 475.514 100.951C466.724 92.1609 455.965 86.5124 444.644 84.0008V76.0606C449.268 74.9103 452.705 70.7249 452.705 65.7502C452.705 59.8913 447.938 55.125 442.08 55.125H419.579C413.72 55.125 408.954 59.8913 408.954 65.7502C408.954 70.7246 412.391 74.91 417.014 76.0606V84.0229C405.728 86.5452 395.005 92.1859 386.24 100.951C384.322 102.869 382.553 104.881 380.934 106.973C380.855 106.967 380.777 106.961 380.697 106.961H358.428C356.702 106.961 355.303 108.36 355.303 110.086C355.303 111.812 356.702 113.211 358.428 113.211H376.682C374.39 117.047 372.543 121.075 371.137 125.222H337.125C335.399 125.222 334 126.621 334 128.347C334 130.073 335.399 131.472 337.125 131.472H369.371C368.47 135.426 367.953 139.449 367.82 143.484H354C352.275 143.484 350.875 144.883 350.875 146.609C350.875 148.335 352.275 149.734 354 149.734H367.919C368.183 153.779 368.833 157.803 369.871 161.746H349.625C347.9 161.746 346.5 163.145 346.5 164.871C346.5 166.597 347.9 167.996 349.625 167.996H371.865C374.931 176.106 379.722 183.707 386.24 190.225C396.536 200.521 410.172 206.978 424.637 208.407C426.701 208.611 428.767 208.712 430.83 208.712C443.025 208.712 455.064 205.183 465.28 198.53C466.726 197.588 467.136 195.652 466.194 194.206C465.252 192.76 463.316 192.351 461.869 193.292C439.508 207.854 409.559 204.706 390.659 185.806C368.483 163.63 368.483 127.547 390.659 105.371C412.835 83.1951 448.918 83.1951 471.094 105.371C489.969 124.246 493.135 154.169 478.621 176.52C477.681 177.967 478.093 179.903 479.54 180.843C480.988 181.783 482.923 181.371 483.863 179.924C491.617 167.981 495.108 153.557 493.692 139.309ZM415.204 65.7505C415.204 63.3379 417.167 61.3754 419.579 61.3754H442.08C444.492 61.3754 446.455 63.3379 446.455 65.7505C446.455 68.163 444.492 70.1255 442.08 70.1255H441.519H420.139H419.579C417.167 70.1255 415.204 68.1627 415.204 65.7505ZM423.265 82.9486V76.3756H438.394V82.9373C433.37 82.3398 428.287 82.3435 423.265 82.9486Z" fill="#9B51E0"/>
<path d="M473.305 184.889C472.48 184.889 471.677 185.223 471.096 185.805C470.512 186.386 470.18 187.192 470.18 188.014C470.18 188.836 470.512 189.642 471.096 190.223C471.677 190.808 472.481 191.139 473.305 191.139C474.127 191.139 474.93 190.808 475.515 190.223C476.096 189.642 476.43 188.836 476.43 188.014C476.43 187.192 476.096 186.386 475.515 185.805C474.93 185.223 474.127 184.889 473.305 184.889Z" fill="#9B51E0"/>
<path d="M430.877 97.1091C404.146 97.1091 382.398 118.856 382.398 145.588C382.398 172.319 404.146 194.066 430.877 194.066C457.608 194.066 479.355 172.319 479.355 145.588C479.355 118.856 457.608 97.1091 430.877 97.1091ZM430.877 187.816C407.592 187.816 388.648 168.872 388.648 145.588C388.648 122.303 407.592 103.359 430.877 103.359C454.162 103.359 473.105 122.303 473.105 145.588C473.105 168.872 454.162 187.816 430.877 187.816Z" fill="#9B51E0"/>
<path d="M450.645 121.4L435.166 136.878C433.872 136.238 432.416 135.877 430.877 135.877C429.337 135.877 427.882 136.238 426.587 136.878L419.66 129.951C418.439 128.731 416.461 128.731 415.24 129.951C414.02 131.172 414.02 133.15 415.24 134.371L422.168 141.298C421.527 142.592 421.166 144.048 421.166 145.587C421.166 150.942 425.522 155.298 430.877 155.298C436.232 155.298 440.588 150.942 440.588 145.587C440.588 144.048 440.226 142.592 439.586 141.298L454.61 126.274L455.064 125.82C456.284 124.6 456.284 122.621 455.064 121.4C453.844 120.18 451.866 120.18 450.645 121.4ZM430.877 149.048C428.969 149.048 427.416 147.496 427.416 145.588C427.416 143.68 428.969 142.127 430.877 142.127C432.785 142.127 434.337 143.68 434.337 145.588C434.337 147.496 432.785 149.048 430.877 149.048Z" fill="#9B51E0"/>
<path d="M464.289 142.501H461.394C459.668 142.501 458.269 143.9 458.269 145.626C458.269 147.352 459.668 148.751 461.394 148.751H464.289C466.015 148.751 467.414 147.352 467.414 145.626C467.414 143.9 466.015 142.501 464.289 142.501Z" fill="#9B51E0"/>
<path d="M400.359 142.425H397.464C395.738 142.425 394.339 143.824 394.339 145.55C394.339 147.275 395.738 148.675 397.464 148.675H400.359C402.085 148.675 403.484 147.275 403.484 145.55C403.484 143.824 402.085 142.425 400.359 142.425Z" fill="#9B51E0"/>
<path d="M430.915 118.195C432.641 118.195 434.04 116.796 434.04 115.07V112.175C434.04 110.449 432.641 109.05 430.915 109.05C429.189 109.05 427.79 110.449 427.79 112.175V115.07C427.79 116.796 429.189 118.195 430.915 118.195Z" fill="#9B51E0"/>
<path d="M430.839 172.98C429.113 172.98 427.714 174.379 427.714 176.105V179C427.714 180.726 429.113 182.125 430.839 182.125C432.564 182.125 433.964 180.726 433.964 179V176.105C433.964 174.379 432.564 172.98 430.839 172.98Z" fill="#9B51E0"/>
<path d="M337.125 161.745C336.303 161.745 335.497 162.079 334.916 162.66C334.334 163.242 334 164.048 334 164.87C334 165.695 334.334 166.498 334.916 167.079C335.497 167.661 336.303 167.995 337.125 167.995C337.947 167.995 338.753 167.661 339.334 167.079C339.915 166.498 340.25 165.692 340.25 164.87C340.25 164.048 339.916 163.242 339.334 162.66C338.753 162.079 337.947 161.745 337.125 161.745Z" fill="#9B51E0"/>
</g>
<defs>
<linearGradient id="paint0_linear" x1="369.5" y1="107.5" x2="868" y2="606" gradientUnits="userSpaceOnUse">
<stop stop-color="white"/>
<stop offset="1" stop-color="white" stop-opacity="0"/>
</linearGradient>
<clipPath id="clip0">
<rect width="332" height="332" fill="white" transform="translate(462 66)"/>
</clipPath>
<clipPath id="clip1">
<rect width="140.062" height="140.062" fill="white" transform="translate(518.414 217.086)"/>
</clipPath>
<clipPath id="clip2">
<rect width="160" height="160" fill="white" transform="translate(334 52)"/>
</clipPath>
</defs>
</svg>
